<svg width="94" height="98" viewBox="0 0 94 98" fill="none" xmlns="http://www.w3.org/2000/svg">
<path fill-rule="evenodd" clip-rule="evenodd" d="M73.2658 53.2392C84.7153 53.2392 93.9985 62.9636 93.9985 74.9574C93.9985 86.9512 84.7153 96.6756 73.2658 96.6756C61.8163 96.6756 52.5331 86.9512 52.5331 74.9574C52.5331 62.9636 61.8163 53.2392 73.2658 53.2392ZM61.3205 74.438H68.9713V87.079H77.5984V74.438H85.4705L73.4031 62.1406L61.3205 74.438ZM13.7604 22.2121C19.939 24.3775 28.5433 25.7119 38.1011 25.7119C47.6589 25.7119 56.2632 24.3775 62.4418 22.2121C67.8652 20.3183 71.2215 18.017 71.2215 15.7717C71.2215 13.5264 67.8652 11.2251 62.4418 9.33135C56.2632 7.17392 47.6589 5.83151 38.1011 5.83151C28.5433 5.83151 19.939 7.16593 13.7604 9.33135C2.24986 13.3586 1.92949 18.081 13.7604 22.2121ZM5.02642 39.1439C5.45359 41.2375 8.71071 43.347 13.7604 45.1129C19.939 47.2783 28.5433 48.6127 38.1011 48.6127C47.6589 48.6127 56.2632 47.2783 62.4418 45.1129C67.8652 43.2191 71.2215 40.9178 71.2215 38.6725H71.2444V23.2508C69.3145 24.6332 66.8355 25.8557 63.9292 26.8705C57.27 29.1958 48.1318 30.642 38.1011 30.642C28.0627 30.642 18.9321 29.2037 12.2729 26.8705C9.39722 25.8637 6.94866 24.6651 5.03405 23.2988V39.1439H5.02642ZM48.5513 74.8455C45.2332 75.1971 41.7243 75.3809 38.1011 75.3809C28.0627 75.3809 18.9321 73.9426 12.2729 71.6094C9.39722 70.6026 6.94866 69.404 5.03405 68.0376V82.8121C5.46122 84.9056 8.71834 87.0151 13.768 88.781C19.9466 90.9384 28.5509 92.2808 38.1087 92.2808C43.8449 92.2808 49.2302 91.8014 53.9595 90.9464C55.1495 92.4966 56.4996 93.9029 57.9947 95.1334C52.2509 96.4519 45.4163 97.211 38.1087 97.211C28.0704 97.211 18.9397 95.7727 12.2806 93.4394C8.77173 92.2089 0.327625 88.1817 0.327625 83.3554C0.327625 82.7881 0.327625 82.3167 0.327625 81.7733C0.312369 59.7834 0.266602 37.7776 0.266602 15.7717C0.266602 11.1692 4.85098 7.26181 12.2653 4.6649C18.9245 2.33966 28.0627 0.901367 38.1011 0.901367C48.1394 0.901367 57.27 2.33966 63.9292 4.67289C70.6799 7.03009 75.0812 10.482 75.8212 14.5571C75.9127 14.8128 75.9585 15.0925 75.9585 15.3882V49.2439C75.0431 49.1321 74.1125 49.0761 73.1666 49.0761C72.5183 49.0761 71.8851 49.1001 71.252 49.156V46.1676C69.3222 47.55 66.8431 48.7725 63.9369 49.7873C57.2777 52.1125 48.1394 53.5588 38.1087 53.5588C28.0704 53.5588 18.9397 52.1205 12.2806 49.7873C9.40485 48.7805 6.95629 47.5819 5.04168 46.2155V60.99C5.46884 63.0835 8.72596 65.193 13.7756 66.9589C19.9543 69.1163 28.5586 70.4587 38.1163 70.4587C41.9379 70.4587 45.607 70.243 49.0319 69.8515C48.7115 71.4576 48.5513 73.1356 48.5513 74.8455Z" fill="white"/>
</svg>
