<svg id="Layer_1" data-name="Layer 1" xmlns="http://www.w3.org/2000/svg" viewBox="0 0 122.88 101.9"><title>software-program</title><path class="cls-1" d="M3.34,0h116.2a3.35,3.35,0,0,1,3.34,3.34v77a3.35,3.35,0,0,1-3.34,3.34H3.34A3.35,3.35,0,0,1,0,80.32v-77A3.35,3.35,0,0,1,3.34,0Zm46,62.5h.12l3.17-1.83a.22.22,0,0,0,.05-.08.08.08,0,0,0,0-.07l-3.47-6h0a.44.44,0,0,1-.06-.16.55.55,0,0,1,.43-.66l5.1-1.06h0a2.73,2.73,0,0,0,1.06-.44.65.65,0,0,0,.23-.29.25.25,0,0,0,0-.2,1.44,1.44,0,0,0-.45-.44L38.23,39.34l1.61,20.91a1.44,1.44,0,0,0,.15.61.26.26,0,0,0,.17.13.64.64,0,0,0,.36-.06,2.58,2.58,0,0,0,.91-.69l3.47-3.9h0a.53.53,0,0,1,.14-.12.57.57,0,0,1,.77.21l3.5,6a.09.09,0,0,0,.06,0Zm-30.77-39a1.29,1.29,0,0,0-1.29,1.42v2.69a1.29,1.29,0,0,0,2.2.92,1.26,1.26,0,0,0,.39-.92V26h1.29a1.29,1.29,0,1,0,0-2.58Zm1.29,9.28a1.29,1.29,0,0,0-2.2-.92,1.26,1.26,0,0,0-.39.92v2.59a1.29,1.29,0,0,0,2.2.92,1.26,1.26,0,0,0,.39-.92V32.74Zm0,7.76a1.3,1.3,0,0,0-2.2-.93,1.29,1.29,0,0,0-.39.93v2.58a1.3,1.3,0,0,0,2.2.93,1.29,1.29,0,0,0,.39-.93V40.5Zm0,7.75a1.3,1.3,0,0,0-2.2-.92,1.28,1.28,0,0,0-.39.92v2.59a1.3,1.3,0,1,0,2.59,0V48.25Zm0,7.76a1.29,1.29,0,0,0-2.2-.92,1.26,1.26,0,0,0-.39.92v2.36a1.3,1.3,0,0,0,1.3,1.35h.17a1.3,1.3,0,0,0,1.12-1.95V56Zm4.05,1.12a1.29,1.29,0,0,0-.92,2.2,1.26,1.26,0,0,0,.92.39h2.59a1.3,1.3,0,0,0,.92-2.2,1.26,1.26,0,0,0-.92-.39Zm7.76,0a1.3,1.3,0,0,0-.93,2.2,1.29,1.29,0,0,0,.93.39h2.58a1.66,1.66,0,0,0,.33,0l-.19-2.54H31.7ZM51,40.21a1.3,1.3,0,0,0,2.2.92,1.26,1.26,0,0,0,.39-.92V37.62a1.29,1.29,0,0,0-2.2-.92,1.26,1.26,0,0,0-.39.92v2.59Zm0-7.76a1.3,1.3,0,1,0,2.59,0V29.86a1.3,1.3,0,0,0-2.2-.92,1.28,1.28,0,0,0-.39.92v2.59ZM52.21,26a1.29,1.29,0,0,0,.92-2.19,1.26,1.26,0,0,0-.92-.39H49.62a1.29,1.29,0,0,0-.92,2.19,1.26,1.26,0,0,0,.92.39Zm-7.76,0a1.29,1.29,0,1,0,0-2.58H41.87a1.29,1.29,0,1,0,0,2.58ZM36.7,26a1.29,1.29,0,0,0,0-2.58H34.11a1.29,1.29,0,1,0,0,2.58Zm-7.76,0a1.29,1.29,0,0,0,.92-2.19,1.26,1.26,0,0,0-.92-.39H26.35a1.29,1.29,0,0,0-.92,2.19,1.26,1.26,0,0,0,.92.39ZM83,73.79c-.1-19.54-1.46-43.19,0-62.14H4.38V70.84a3,3,0,0,0,3,3Zm8.26-52.13a1.51,1.51,0,1,1,0-3h20.36a1.51,1.51,0,1,1,0,3Zm1.95,38.18h16.46A4.13,4.13,0,0,1,113.79,64h0a4.14,4.14,0,0,1-4.12,4.13H93.21A4.14,4.14,0,0,1,89.09,64h0a4.13,4.13,0,0,1,4.12-4.12Zm-2-6.91a1.51,1.51,0,0,1,0-3h20.48a1.51,1.51,0,0,1,0,3Zm.37-10.42a1.51,1.51,0,1,1,0-3h19.74a1.51,1.51,0,0,1,0,3Zm-.39-10.42a1.51,1.51,0,1,1,0-3H111.7a1.51,1.51,0,0,1,0,3Zm26.11,41.13V12.37H85.59V73.79h30a2.87,2.87,0,0,0,1.73-.57Zm-71,15h30.3c.08,5.24,2.24,9.94,8.09,13.63H38.2c4.71-3.41,8.11-7.54,8.09-13.63ZM113.8,4.92a2,2,0,1,1-2,2,2,2,0,0,1,2-2Zm-13.44,0a2,2,0,1,1-2,2,2,2,0,0,1,2-2Zm6.72,0a2,2,0,1,1-2,2,2,2,0,0,1,2-2Z"/></svg>