<?xml version="1.0" encoding="UTF-8" standalone="no"?>
<!-- Created with Inkscape (http://www.inkscape.org/) -->

<svg
   version="1.1"
   id="svg182"
   width="512"
   height="512"
   viewBox="0 0 512 512"
   sodipodi:docname="typography.png"
   xmlns:inkscape="http://www.inkscape.org/namespaces/inkscape"
   xmlns:sodipodi="http://sodipodi.sourceforge.net/DTD/sodipodi-0.dtd"
   xmlns:xlink="http://www.w3.org/1999/xlink"
   xmlns="http://www.w3.org/2000/svg"
   xmlns:svg="http://www.w3.org/2000/svg">
  <defs
     id="defs186" />
  <sodipodi:namedview
     id="namedview184"
     pagecolor="#ffffff"
     bordercolor="#000000"
     borderopacity="0.25"
     inkscape:showpageshadow="2"
     inkscape:pageopacity="0.0"
     inkscape:pagecheckerboard="true"
     inkscape:deskcolor="#d1d1d1"
     showgrid="false" />
  <g
     inkscape:groupmode="layer"
     inkscape:label="Image"
     id="g188">
    <image
       width="512"
       height="512"
       preserveAspectRatio="none"
       id="image190" />
    <path
       style="fill:#000000"
       d="M 11,475.5 V 448 H 38.5 66 V 475.5 503 H 38.5 11 Z m 435,0 V 448 H 473.5 501 V 475.5 503 H 473.5 446 Z m -352.545455,5.04545 c -2.999691,-2.99969 -3.131334,-6.41533 -0.381965,-9.91059 L 95.14516,468 h 160.75311 160.7531 l 2.17432,2.31445 c 2.88427,3.07017 2.77173,7.17904 -0.28024,10.231 L 416.09091,483 H 256 95.909091 Z M 118.5,427.12116 c -8.51906,-3.90794 -13.5,-11.65015 -13.5,-20.98397 0,-5.63673 3.29882,-13.65245 64.1144,-155.78984 35.26292,-82.41604 65.17243,-151.939319 66.46557,-154.496169 8.62469,-17.053022 32.23286,-17.053022 40.8335,0 1.28954,2.55685 31.04848,71.698819 66.13098,153.648819 69.30751,161.89697 66.75005,155.20341 63.02566,164.95559 -2.06795,5.41486 -9.05199,12.02919 -14.21541,13.46292 -8.85204,2.45795 -17.75703,0.11713 -23.75323,-6.24391 -2.22713,-2.36265 -8.85804,-16.7351 -23.52134,-50.98239 L 323.66027,323 H 256 188.33973 l -20.41986,47.69221 c -14.6633,34.24729 -21.29421,48.61974 -23.52134,50.98239 -6.48568,6.88031 -17.65328,9.2289 -25.89853,5.44656 z M 303.71799,276.25 c -0.22002,-0.4125 -10.93119,-25.3875 -23.8026,-55.5 C 267.04398,190.6375 256.28206,166 256,166 c -0.28206,0 -11.04398,24.6375 -23.91539,54.75 -12.87141,30.1125 -23.58258,55.0875 -23.8026,55.5 -0.22002,0.4125 21.25307,0.75 47.71799,0.75 26.46492,0 47.93801,-0.3375 47.71799,-0.75 z M 33.454545,418.54545 31,416.09091 V 256 95.909091 l 2.454545,-2.454546 c 3.128274,-3.128273 6.962636,-3.128273 10.09091,0 L 46,95.909091 V 256 416.09091 l -2.454545,2.45454 C 42.195455,419.89545 39.925,421 38.5,421 c -1.425,0 -3.695455,-1.10455 -5.045455,-2.45455 z m 435.000005,0 L 466,416.09091 V 256 95.909091 l 2.45455,-2.454546 c 2.99969,-2.999691 6.41533,-3.131334 9.91059,-0.381965 L 481,95.14516 V 256 416.85484 l -2.63486,2.07258 c -3.49526,2.74937 -6.9109,2.61773 -9.91059,-0.38197 z M 11,36.5 V 9 H 38.5 66 V 36.5 64 H 38.5 11 Z m 435,0 V 9 H 473.5 501 V 36.5 64 H 473.5 446 Z M 93.07258,41.365141 c -2.749369,-3.495256 -2.617726,-6.910904 0.381965,-9.910596 L 95.909091,29 H 256 416.09091 l 2.45454,2.454545 c 2.9997,2.999692 3.13134,6.41534 0.38197,9.910596 L 416.85484,44 H 256 95.14516 Z"
       id="path854" />
  </g>
</svg>
