<svg xmlns="http://www.w3.org/2000/svg" shape-rendering="geometricPrecision" text-rendering="geometricPrecision" image-rendering="optimizeQuality" fill-rule="evenodd" clip-rule="evenodd" viewBox="0 0 512 293.45"><path d="M12.93 267.59h47.76c-1.56-1.62-2.53-3.81-2.53-6.22V8.97C58.16 4.04 62.2 0 67.13 0h375.38c4.93 0 8.97 4.04 8.97 8.97v252.4c0 2.41-.97 4.6-2.53 6.22h50.12c3.56 0 6.8 1.45 9.14 3.79a12.903 12.903 0 0 1 0 18.27c-2.34 2.34-5.58 3.8-9.14 3.8H12.93c-3.56 0-6.8-1.46-9.14-3.8a12.903 12.903 0 0 1 0-18.27c2.34-2.34 5.58-3.79 9.14-3.79zM339 181.33c.67-2.91 3.59-4.72 6.5-4.05 2.91.68 4.72 3.59 4.05 6.51l-10.59 45.34a5.412 5.412 0 0 1-6.5 4.04 5.406 5.406 0 0 1-4.05-6.5L339 181.33zM97.79 82.82c-3.52 0-6.37-2.85-6.37-6.37 0-3.51 2.85-6.37 6.37-6.37h160.46c3.51 0 6.36 2.86 6.36 6.37 0 3.52-2.85 6.37-6.36 6.37H97.79zm0 40.57c-3.52 0-6.37-2.86-6.37-6.37 0-3.52 2.85-6.37 6.37-6.37h148.57c3.51 0 6.36 2.85 6.36 6.37 0 3.51-2.85 6.37-6.36 6.37H97.79zm0 81.13c-3.52 0-6.37-2.85-6.37-6.37s2.85-6.37 6.37-6.37h104.63c3.51 0 6.37 2.85 6.37 6.37s-2.86 6.37-6.37 6.37H97.79zm0-40.57a6.365 6.365 0 1 1 0-12.73h114.97a6.365 6.365 0 1 1 0 12.73H97.79zm227.12-84.76c0-4.31 1.24-8.3 3.36-11.71h37.7c2.12 3.38 3.35 7.4 3.35 11.71 0 12.26-9.94 22.21-22.2 22.21s-22.21-9.95-22.21-22.21zm86.29.84v4.65c0 4.35-3.55 7.91-7.9 7.91h-8.1a49.25 49.25 0 0 1-4.88 12.88l5.4 5.4c3.07 3.08 3.07 8.11 0 11.18l-6.58 6.59c-3.07 3.07-8.1 3.07-11.18 0l-4.92-4.93c-4.1 2.55-8.59 4.51-13.36 5.78v6.72c0 4.35-3.57 7.91-7.91 7.91h-9.3c-4.35 0-7.91-3.56-7.91-7.91v-6.63a49.3 49.3 0 0 1-13.5-5.73l-4.79 4.79c-3.07 3.07-8.11 3.07-11.18 0l-6.58-6.58c-3.07-3.08-3.07-8.11 0-11.19l5.18-5.17a49.215 49.215 0 0 1-5.01-13.11h-7.74c-4.35 0-7.91-3.56-7.91-7.91v-9.3c0-4.22 3.36-7.7 7.53-7.9h26.48c-1.24 3.4-1.91 7.07-1.91 10.9 0 .56.01 1.11.04 1.65-.03.55-.04 1.1-.04 1.65 0 17.57 14.24 31.82 31.81 31.82s31.82-14.25 31.82-31.82c0-.55-.01-1.1-.05-1.65.04-.54.05-1.09.05-1.65 0-3.83-.68-7.5-1.92-10.9h26.83c4.18.2 7.53 3.68 7.53 7.9v4.65zm-90.26 137.36c2.24 1.97 2.47 5.39.51 7.63a5.412 5.412 0 0 1-7.63.51l-18.53-16.23c-2.24-1.97-2.47-5.39-.51-7.63l.53-.53 18.51-16.21c2.24-1.97 5.66-1.74 7.63.51 1.96 2.24 1.73 5.66-.51 7.63l-13.88 12.16 13.88 12.16zm44.45 8.14a5.412 5.412 0 0 1-7.63-.51c-1.96-2.24-1.73-5.66.51-7.63l13.88-12.16-13.88-12.16c-2.24-1.97-2.47-5.39-.51-7.63 1.97-2.25 5.39-2.48 7.63-.51l18.51 16.21.53.53c1.96 2.24 1.73 5.66-.52 7.63l-18.52 16.23zm72.04-188.25H73.49V256.7h363.94V37.28zM117.67 14.45c2.99 0 5.4 2.42 5.4 5.4 0 2.98-2.41 5.4-5.4 5.4-2.98 0-5.4-2.42-5.4-5.4 0-2.98 2.42-5.4 5.4-5.4zm-18.87 0c2.98 0 5.39 2.42 5.39 5.4 0 2.98-2.41 5.4-5.39 5.4-2.99 0-5.41-2.42-5.41-5.4 0-2.98 2.42-5.4 5.41-5.4zm-18.88 0c2.98 0 5.4 2.42 5.4 5.4 0 2.98-2.42 5.4-5.4 5.4-2.99 0-5.4-2.42-5.4-5.4 0-2.98 2.41-5.4 5.4-5.4zm161.35 259.51h29.46c2.76 0 5.02 2.26 5.02 5.02s-2.26 5.02-5.02 5.02h-29.46c-2.76 0-5.02-2.26-5.02-5.02s2.26-5.02 5.02-5.02z"/></svg>