<svg xmlns="http://www.w3.org/2000/svg" id="Icons" viewBox="0 0 60 60"><path d="M57,32H44V7c0-4.6-11.067-7-22-7S0,2.4,0,7V45c0,4.265,9.9,6.693,20,6.97V57a3,3,0,0,0,3,3H57a3,3,0,0,0,3-3V35A3,3,0,0,0,57,32ZM22,2C34.209,2,42,4.961,42,7s-7.791,5-20,5S2,9.039,2,7,9.791,2,22,2ZM2,10.1C5.674,12.67,13.872,14,22,14s16.326-1.33,20-3.9V20c0,2.039-7.791,5-20,5S2,22.039,2,20Zm0,13C5.674,25.67,13.872,27,22,27s16.326-1.33,20-3.9V32H23a3,3,0,0,0-3,3v2.965C8.828,37.66,2,34.92,2,33ZM2,45V36.116c3.443,2.407,10.817,3.664,18,3.857v9.989C8.828,49.656,2,46.918,2,45ZM58,57a1,1,0,0,1-1,1H23a1,1,0,0,1-1-1V35a1,1,0,0,1,1-1H57a1,1,0,0,1,1,1Z"></path><path d="M40,39a4,4,0,0,0-4,4v6a4,4,0,0,0,4,4,3.947,3.947,0,0,0,2.019-.567l.274.274a1,1,0,0,0,1.414-1.414l-.274-.274A3.947,3.947,0,0,0,44,49V43A4,4,0,0,0,40,39Zm1.707,10.293a1,1,0,0,0-1.414,1.414l.218.218A1.96,1.96,0,0,1,40,51a2,2,0,0,1-2-2V43a2,2,0,0,1,4,0v6a1.96,1.96,0,0,1-.075.511Z"></path><path d="M30,41a2,2,0,0,1,2,2,1,1,0,0,0,2,0,4,4,0,1,0-4,4,2,2,0,1,1-2,2,1,1,0,0,0-2,0,4,4,0,1,0,4-4,2,2,0,0,1,0-4Z"></path><path d="M53,51H48V40a1,1,0,0,0-2,0V52a1,1,0,0,0,1,1h6a1,1,0,0,0,0-2Z"></path></svg>